<svg xmlns="http://www.w3.org/2000/svg" version="1.0" viewBox="0 0 1042 1042">
  <title>Moshele Seoka's Official Logo</title>
  <path d="M523.7 87c-21 1.3-36.8 3.5-41.4 5.9-5.1 2.6-10.7 8.6-13.2 14.1-2.1 4.5-2.1 5.3-2.1 266.5v262l155.3 155.1c172.7 172.6 157.9 159 171.9 158.2 4.3-.2 9-1.2 11.3-2.3 5.6-2.6 70.5-67.4 73.6-73.5 3.4-6.5 3.4-19.5 0-26-1.6-3.1-27.6-29.9-83.6-86-89.8-90.1-85.1-84.7-84.9-97.7.2-11.1 6.7-20.8 17.3-25.7 4.6-2.1 5.6-2.1 102.1-2.6 111.1-.6 101.9.2 110.9-9.6 2.7-3 5.5-7.1 6.3-9.1 1-3 1.3-14.7 1.3-53.3 0-48.3 0-49.6-2.1-54.1-2.6-5.5-7.9-11.1-13.7-14.1l-4.2-2.3L780 492l-148.5-.5-4.6-2.3c-6.5-3.2-12.5-9.6-14.9-15.9-1.9-5.2-2-7.9-2-104.7 0-110.9-.4-104.5 7.1-113 2.2-2.5 6.5-5.7 9.6-7.2 11.4-5.6 22-3.2 52.3 12 36.4 18.2 68.1 43.1 93.8 73.8 5.7 6.7 8.7 9.4 13 11.5l5.7 2.8H850c67.2 0 64 .4 72.8-8.9 8.9-9.4 10.5-21.8 4.4-33.5-7.8-14.8-24-38.5-39.7-58.1-11.9-14.9-38.7-42.5-54-55.8C772.4 139.5 698.4 105 618.6 92c-28.4-4.6-66.6-6.6-94.9-5zM109.5 715.4C95 722.1 89 740.2 96.4 754.8c3.8 7.5 23.1 36 32.9 48.4 40.4 51.7 91.4 92.8 149.1 120.3 31.8 15.2 81.4 31.5 95.7 31.5 11.5 0 20.6-5.6 25.6-15.8l2.8-5.7v-96l-2.8-5.7c-4.3-8.8-9.4-12.4-23.5-16.5-48-14-88.7-41.7-124.7-84.8-8-9.6-11.1-12.6-15.4-14.8l-5.5-2.7H114.5l-5 2.4z"/>
</svg>
